<svg width="382" height="171" viewBox="0 0 382 171" fill="none" xmlns="http://www.w3.org/2000/svg">
<g clip-path="url(#clip0)">
<g opacity="0.4">
<g opacity="0.8">
<rect width="14" height="45" rx="0.564382" transform="matrix(-1 0 0 1 234.783 108.835)" fill="#855CF8"/>
</g>
</g>
<g opacity="0.4">
<g opacity="0.8">
<rect width="14" height="47" rx="0.564382" transform="matrix(-1 0 0 1 218.98 106.86)" fill="#855CF8"/>
</g>
</g>
<g opacity="0.4">
<g opacity="0.8">
<rect width="14" height="52" rx="0.564382" transform="matrix(-1 0 0 1 203.178 102.345)" fill="#855CF8"/>
</g>
</g>
<g opacity="0.4">
<g opacity="0.8">
<rect width="14" height="58" rx="0.564382" transform="matrix(-1 0 0 1 187.375 95.8546)" fill="#855CF8"/>
</g>
</g>
<g opacity="0.4">
<g opacity="0.8">
<rect width="14" height="66" rx="0.564382" transform="matrix(-1 0 0 1 171.572 87.6711)" fill="#855CF8"/>
</g>
</g>
<g opacity="0.4">
<g opacity="0.8">
<rect width="14" height="62" rx="0.564382" transform="matrix(-1 0 0 1 155.77 92.1862)" fill="#855CF8"/>
</g>
</g>
<g opacity="0.4">
<g opacity="0.8">
<rect width="14" height="77" rx="0.564382" transform="matrix(-1 0 0 1 139.967 76.9479)" fill="#855CF8"/>
</g>
</g>
<g opacity="0.4">
<g opacity="0.8">
<rect width="14" height="94" rx="0.564382" transform="matrix(-1 0 0 1 124.164 59.7341)" fill="#855CF8"/>
</g>
</g>
<g opacity="0.4">
<g opacity="0.8">
<rect width="14" height="114" rx="0.564382" transform="matrix(-1 0 0 1 108.361 39.6986)" fill="#855CF8"/>
</g>
</g>
<g opacity="0.4">
<g opacity="0.8">
<rect width="14" height="118" rx="0.564382" transform="matrix(-1 0 0 1 45.1504 36.0302)" fill="#855CF8"/>
</g>
</g>
<g opacity="0.4">
<g opacity="0.8">
<rect width="14" height="123" rx="0.564382" transform="matrix(-1 0 0 1 29.3477 30.9507)" fill="#855CF8"/>
</g>
</g>
<g opacity="0.4">
<g opacity="0.8">
<rect width="14" height="127" rx="0.564382" transform="matrix(-1 0 0 1 13.5454 27)" fill="#855CF8"/>
</g>
</g>
<g opacity="0.4">
<g opacity="0.8">
<rect width="14" height="110" rx="0.564382" transform="matrix(-1 0 0 1 92.5586 44.4958)" fill="#855CF8"/>
</g>
</g>
<g opacity="0.4">
<g opacity="0.8">
<rect width="14" height="108" rx="0.564382" transform="matrix(-1 0 0 1 76.7559 46.4712)" fill="#855CF8"/>
</g>
</g>
<g opacity="0.4">
<g opacity="0.8">
<rect width="14" height="112" rx="0.564382" transform="matrix(-1 0 0 1 60.9531 41.674)" fill="#855CF8"/>
</g>
</g>
<g opacity="0.8">
<rect width="14" height="6" rx="0.564382" transform="matrix(-1 0 0 1 234.783 147.65)" fill="#855CF8"/>
</g>
<g opacity="0.8">
<rect width="14" height="12" rx="0.564382" transform="matrix(-1 0 0 1 218.98 142.094)" fill="#855CF8"/>
</g>
<g opacity="0.8">
<rect width="14" height="17" rx="0.564382" transform="matrix(-1 0 0 1 203.178 137.331)" fill="#855CF8"/>
</g>
<g opacity="0.8">
<rect width="14" height="18" rx="0.564382" transform="matrix(-1 0 0 1 187.375 135.744)" fill="#855CF8"/>
</g>
<g opacity="0.8">
<rect width="14" height="26" rx="0.564382" transform="matrix(-1 0 0 1 171.572 127.806)" fill="#855CF8"/>
</g>
<g opacity="0.8">
<rect width="14" height="21" rx="0.564382" transform="matrix(-1 0 0 1 155.77 133.363)" fill="#855CF8"/>
</g>
<g opacity="0.8">
<rect width="14" height="35" rx="0.564382" transform="matrix(-1 0 0 1 139.967 119.472)" fill="#855CF8"/>
</g>
<g opacity="0.8">
<rect width="14" height="54" rx="0.564382" transform="matrix(-1 0 0 1 124.164 100.422)" fill="#855CF8"/>
</g>
<g opacity="0.8">
<rect width="14" height="48" rx="0.564382" transform="matrix(-1 0 0 1 108.361 105.581)" fill="#855CF8"/>
</g>
<g opacity="0.8">
<rect width="14" height="44" rx="0.564382" transform="matrix(-1 0 0 1 45.1504 109.55)" fill="#855CF8"/>
</g>
<g opacity="0.8">
<rect width="14" height="62" rx="0.564382" transform="matrix(-1 0 0 1 29.3477 92.4844)" fill="#855CF8"/>
</g>
<g opacity="0.8">
<rect width="14" height="65" rx="0.564382" transform="matrix(-1 0 0 1 13.5454 88.9125)" fill="#855CF8"/>
</g>
<g opacity="0.8">
<rect width="14" height="52" rx="0.564382" transform="matrix(-1 0 0 1 92.5586 102.406)" fill="#855CF8"/>
</g>
<g opacity="0.8">
<rect width="14" height="40" rx="0.564382" transform="matrix(-1 0 0 1 76.7559 113.916)" fill="#855CF8"/>
</g>
<g opacity="0.8">
<rect width="14" height="46" rx="0.564382" transform="matrix(-1 0 0 1 60.9531 107.566)" fill="#855CF8"/>
</g>
<rect width="14" height="3" rx="0.564382" transform="matrix(-1 0 0 1 234.783 151.46)" fill="#263238"/>
<rect width="14" height="5" rx="0.564382" transform="matrix(-1 0 0 1 218.98 149.203)" fill="#263238"/>
<rect width="14" height="7" rx="0.564382" transform="matrix(-1 0 0 1 203.178 147.227)" fill="#263238"/>
<rect width="14" height="7" rx="0.564382" transform="matrix(-1 0 0 1 187.375 146.663)" fill="#263238"/>
<rect width="14" height="8" rx="0.564382" transform="matrix(-1 0 0 1 171.572 146.381)" fill="#263238"/>
<rect width="14" height="5" rx="0.564382" transform="matrix(-1 0 0 1 155.77 149.203)" fill="#263238"/>
<rect width="14" height="12" rx="0.564382" transform="matrix(-1 0 0 1 139.967 142.148)" fill="#263238"/>
<rect width="14" height="17" rx="0.564382" transform="matrix(-1 0 0 1 124.164 136.786)" fill="#263238"/>
<rect width="14" height="20" rx="0.564382" transform="matrix(-1 0 0 1 108.361 133.682)" fill="#263238"/>
<rect width="14" height="25" rx="0.564382" transform="matrix(-1 0 0 1 45.1504 129.449)" fill="#263238"/>
<rect width="14" height="29" rx="0.564382" transform="matrix(-1 0 0 1 29.3477 125.499)" fill="#263238"/>
<rect width="14" height="30" rx="0.564382" transform="matrix(-1 0 0 1 13.5454 123.523)" fill="#263238"/>
<rect width="14" height="16" rx="0.564382" transform="matrix(-1 0 0 1 92.5586 138.197)" fill="#263238"/>
<rect width="14" height="22" rx="0.564382" transform="matrix(-1 0 0 1 76.7559 131.707)" fill="#263238"/>
<rect width="14" height="19" rx="0.564382" transform="matrix(-1 0 0 1 60.9531 135.375)" fill="#263238"/>
</g>
<rect x="317" width="14" height="14" rx="7" fill="#263238"/>
<path d="M318.109 32.0602V22.6056H323.88V23.608H319.247V26.7776H323.609V27.7799H319.247V31.0578H323.88V32.0602H318.109ZM328.449 32.2227C327.799 32.2227 327.252 32.1008 326.81 31.857C326.376 31.6042 326.002 31.27 325.686 30.8547L326.458 30.2316C326.729 30.5747 327.031 30.8411 327.365 31.0307C327.699 31.2113 328.088 31.3017 328.53 31.3017C328.991 31.3017 329.347 31.2023 329.6 31.0037C329.862 30.805 329.993 30.5251 329.993 30.1639C329.993 29.893 329.903 29.6627 329.722 29.4731C329.551 29.2744 329.235 29.1389 328.774 29.0667L328.219 28.9854C327.894 28.9403 327.596 28.8725 327.325 28.7822C327.054 28.6829 326.814 28.5565 326.607 28.403C326.408 28.2404 326.25 28.0418 326.133 27.807C326.024 27.5722 325.97 27.2923 325.97 26.9672C325.97 26.624 326.033 26.3261 326.16 26.0732C326.286 25.8113 326.458 25.5946 326.674 25.423C326.9 25.2515 327.167 25.125 327.474 25.0438C327.781 24.9535 328.11 24.9083 328.462 24.9083C329.031 24.9083 329.505 25.0077 329.885 25.2063C330.273 25.405 330.612 25.6804 330.901 26.0326L330.183 26.6827C330.029 26.466 329.803 26.2719 329.505 26.1003C329.207 25.9197 328.833 25.8294 328.381 25.8294C327.93 25.8294 327.587 25.9287 327.352 26.1274C327.126 26.317 327.013 26.5789 327.013 26.913C327.013 27.2562 327.126 27.5045 327.352 27.658C327.587 27.8115 327.921 27.9244 328.354 27.9966L328.896 28.0779C329.672 28.1953 330.223 28.421 330.548 28.7552C330.873 29.0802 331.036 29.5092 331.036 30.0419C331.036 30.7192 330.806 31.252 330.345 31.6403C329.885 32.0286 329.253 32.2227 328.449 32.2227ZM335.422 32.2227C334.772 32.2227 334.225 32.1008 333.783 31.857C333.349 31.6042 332.975 31.27 332.658 30.8547L333.431 30.2316C333.701 30.5747 334.004 30.8411 334.338 31.0307C334.672 31.2113 335.06 31.3017 335.503 31.3017C335.963 31.3017 336.32 31.2023 336.573 31.0037C336.835 30.805 336.966 30.5251 336.966 30.1639C336.966 29.893 336.876 29.6627 336.695 29.4731C336.523 29.2744 336.207 29.1389 335.747 29.0667L335.191 28.9854C334.866 28.9403 334.568 28.8725 334.297 28.7822C334.027 28.6829 333.787 28.5565 333.58 28.403C333.381 28.2404 333.223 28.0418 333.105 27.807C332.997 27.5722 332.943 27.2923 332.943 26.9672C332.943 26.624 333.006 26.3261 333.133 26.0732C333.259 25.8113 333.431 25.5946 333.647 25.423C333.873 25.2515 334.139 25.125 334.446 25.0438C334.753 24.9535 335.083 24.9083 335.435 24.9083C336.004 24.9083 336.478 25.0077 336.857 25.2063C337.246 25.405 337.584 25.6804 337.873 26.0326L337.155 26.6827C337.002 26.466 336.776 26.2719 336.478 26.1003C336.18 25.9197 335.805 25.8294 335.354 25.8294C334.902 25.8294 334.559 25.9287 334.325 26.1274C334.099 26.317 333.986 26.5789 333.986 26.913C333.986 27.2562 334.099 27.5045 334.325 27.658C334.559 27.8115 334.893 27.9244 335.327 27.9966L335.869 28.0779C336.645 28.1953 337.196 28.421 337.521 28.7552C337.846 29.0802 338.009 29.5092 338.009 30.0419C338.009 30.7192 337.779 31.252 337.318 31.6403C336.857 32.0286 336.225 32.2227 335.422 32.2227ZM341.826 32.0602C341.447 32.0602 341.158 31.9563 340.959 31.7486C340.769 31.5319 340.675 31.252 340.675 30.9088V26.019H339.523V25.0709H340.173C340.408 25.0709 340.566 25.0257 340.647 24.9354C340.738 24.8361 340.783 24.669 340.783 24.4342V23.1339H341.758V25.0709H343.289V26.019H341.758V31.112H343.18V32.0602H341.826ZM348.057 32.2227C347.578 32.2227 347.145 32.1369 346.756 31.9654C346.377 31.7938 346.048 31.55 345.768 31.2339C345.497 30.9088 345.285 30.5251 345.131 30.0826C344.987 29.6311 344.914 29.1254 344.914 28.5655C344.914 28.0147 344.987 27.5135 345.131 27.062C345.285 26.6105 345.497 26.2267 345.768 25.9107C346.048 25.5856 346.377 25.3373 346.756 25.1657C347.145 24.9941 347.578 24.9083 348.057 24.9083C348.526 24.9083 348.946 24.9941 349.317 25.1657C349.687 25.3373 350.003 25.5766 350.265 25.8836C350.527 26.1816 350.725 26.5383 350.861 26.9536C351.005 27.369 351.077 27.8251 351.077 28.3217V28.8364H346.052V29.1615C346.052 29.4595 346.097 29.7394 346.188 30.0013C346.287 30.2542 346.422 30.4754 346.594 30.665C346.775 30.8547 346.991 31.0037 347.244 31.112C347.506 31.2204 347.799 31.2746 348.125 31.2746C348.567 31.2746 348.951 31.1707 349.276 30.963C349.61 30.7553 349.867 30.4573 350.048 30.069L350.82 30.6244C350.594 31.103 350.242 31.4913 349.764 31.7893C349.285 32.0782 348.716 32.2227 348.057 32.2227ZM348.057 25.8159C347.759 25.8159 347.488 25.87 347.244 25.9784C347 26.0777 346.788 26.2222 346.607 26.4118C346.436 26.6015 346.3 26.8272 346.201 27.0891C346.102 27.3419 346.052 27.6219 346.052 27.9289V28.0237H349.913V27.8747C349.913 27.2516 349.741 26.755 349.398 26.3848C349.064 26.0055 348.617 25.8159 348.057 25.8159ZM364.444 24.0956H364.376L363.577 25.6804L361.315 29.7981L359.053 25.6804L358.254 24.0956H358.186V32.0602H357.076V22.6056H358.593L361.302 27.6986H361.369L364.092 22.6056H365.555V32.0602H364.444V24.0956ZM371.039 32.2227C370.56 32.2227 370.127 32.1369 369.738 31.9654C369.359 31.7938 369.029 31.55 368.75 31.2339C368.479 30.9088 368.266 30.5251 368.113 30.0826C367.968 29.6311 367.896 29.1254 367.896 28.5655C367.896 28.0147 367.968 27.5135 368.113 27.062C368.266 26.6105 368.479 26.2267 368.75 25.9107C369.029 25.5856 369.359 25.3373 369.738 25.1657C370.127 24.9941 370.56 24.9083 371.039 24.9083C371.508 24.9083 371.928 24.9941 372.298 25.1657C372.669 25.3373 372.985 25.5766 373.247 25.8836C373.508 26.1816 373.707 26.5383 373.843 26.9536C373.987 27.369 374.059 27.8251 374.059 28.3217V28.8364H369.034V29.1615C369.034 29.4595 369.079 29.7394 369.169 30.0013C369.269 30.2542 369.404 30.4754 369.576 30.665C369.756 30.8547 369.973 31.0037 370.226 31.112C370.488 31.2204 370.781 31.2746 371.106 31.2746C371.549 31.2746 371.933 31.1707 372.258 30.963C372.592 30.7553 372.849 30.4573 373.03 30.069L373.802 30.6244C373.576 31.103 373.224 31.4913 372.745 31.7893C372.267 32.0782 371.698 32.2227 371.039 32.2227ZM371.039 25.8159C370.741 25.8159 370.47 25.87 370.226 25.9784C369.982 26.0777 369.77 26.2222 369.589 26.4118C369.418 26.6015 369.282 26.8272 369.183 27.0891C369.084 27.3419 369.034 27.6219 369.034 27.9289V28.0237H372.894V27.8747C372.894 27.2516 372.723 26.755 372.38 26.3848C372.046 26.0055 371.599 25.8159 371.039 25.8159ZM371.729 21.6981L373.233 23.6351L372.637 24.055L371.052 22.4702L369.467 24.055L368.871 23.6351L370.375 21.6981H371.729ZM378.396 32.2227C377.746 32.2227 377.199 32.1008 376.757 31.857C376.323 31.6042 375.949 31.27 375.633 30.8547L376.405 30.2316C376.676 30.5747 376.978 30.8411 377.312 31.0307C377.646 31.2113 378.035 31.3017 378.477 31.3017C378.938 31.3017 379.294 31.2023 379.547 31.0037C379.809 30.805 379.94 30.5251 379.94 30.1639C379.94 29.893 379.85 29.6627 379.669 29.4731C379.498 29.2744 379.181 29.1389 378.721 29.0667L378.166 28.9854C377.841 28.9403 377.543 28.8725 377.272 28.7822C377.001 28.6829 376.761 28.5565 376.554 28.403C376.355 28.2404 376.197 28.0418 376.08 27.807C375.971 27.5722 375.917 27.2923 375.917 26.9672C375.917 26.624 375.98 26.3261 376.107 26.0732C376.233 25.8113 376.405 25.5946 376.621 25.423C376.847 25.2515 377.114 25.125 377.421 25.0438C377.728 24.9535 378.057 24.9083 378.409 24.9083C378.978 24.9083 379.452 25.0077 379.832 25.2063C380.22 25.405 380.559 25.6804 380.848 26.0326L380.13 26.6827C379.976 26.466 379.75 26.2719 379.452 26.1003C379.154 25.9197 378.78 25.8294 378.328 25.8294C377.877 25.8294 377.533 25.9287 377.299 26.1274C377.073 26.317 376.96 26.5789 376.96 26.913C376.96 27.2562 377.073 27.5045 377.299 27.658C377.533 27.8115 377.868 27.9244 378.301 27.9966L378.843 28.0779C379.619 28.1953 380.17 28.421 380.495 28.7552C380.82 29.0802 380.983 29.5092 380.983 30.0419C380.983 30.7192 380.753 31.252 380.292 31.6403C379.832 32.0286 379.2 32.2227 378.396 32.2227Z" fill="#263238"/>
<g opacity="0.4">
<g opacity="0.8">
<rect x="317.639" y="106.94" width="14" height="14" rx="7" fill="#855CF8"/>
</g>
</g>
<path d="M321.26 137V127.545H322.397V135.998H326.42V137H321.26ZM328.93 128.372C328.696 128.372 328.524 128.318 328.416 128.209C328.316 128.092 328.267 127.943 328.267 127.762V127.586C328.267 127.405 328.316 127.261 328.416 127.153C328.524 127.035 328.696 126.977 328.93 126.977C329.165 126.977 329.332 127.035 329.432 127.153C329.54 127.261 329.594 127.405 329.594 127.586V127.762C329.594 127.943 329.54 128.092 329.432 128.209C329.332 128.318 329.165 128.372 328.93 128.372ZM328.389 130.011H329.472V137H328.389V130.011ZM332.226 137V130.011H333.31V131.148H333.364C333.446 130.968 333.536 130.801 333.635 130.647C333.744 130.485 333.87 130.345 334.014 130.227C334.168 130.11 334.344 130.02 334.543 129.957C334.741 129.884 334.976 129.848 335.247 129.848C335.708 129.848 336.132 129.961 336.52 130.187C336.909 130.403 337.198 130.765 337.387 131.27H337.414C337.541 130.891 337.775 130.562 338.119 130.282C338.471 129.993 338.945 129.848 339.541 129.848C340.254 129.848 340.81 130.083 341.207 130.552C341.613 131.013 341.816 131.668 341.816 132.517V137H340.733V132.706C340.733 132.083 340.611 131.614 340.367 131.297C340.123 130.981 339.735 130.823 339.202 130.823C338.986 130.823 338.778 130.85 338.579 130.905C338.39 130.959 338.218 131.04 338.064 131.148C337.911 131.257 337.789 131.397 337.699 131.568C337.608 131.731 337.563 131.925 337.563 132.151V137H336.48V132.706C336.48 132.083 336.358 131.614 336.114 131.297C335.87 130.981 335.491 130.823 334.976 130.823C334.759 130.823 334.552 130.85 334.353 130.905C334.154 130.959 333.978 131.04 333.825 131.148C333.671 131.257 333.545 131.397 333.446 131.568C333.355 131.731 333.31 131.925 333.31 132.151V137H332.226ZM345.045 128.372C344.811 128.372 344.639 128.318 344.531 128.209C344.431 128.092 344.382 127.943 344.382 127.762V127.586C344.382 127.405 344.431 127.261 344.531 127.153C344.639 127.035 344.811 126.977 345.045 126.977C345.28 126.977 345.447 127.035 345.547 127.153C345.655 127.261 345.709 127.405 345.709 127.586V127.762C345.709 127.943 345.655 128.092 345.547 128.209C345.447 128.318 345.28 128.372 345.045 128.372ZM344.504 130.011H345.587V137H344.504V130.011ZM349.885 137C349.506 137 349.217 136.896 349.019 136.688C348.829 136.472 348.734 136.192 348.734 135.849V130.959H347.583V130.011H348.233C348.468 130.011 348.626 129.966 348.707 129.875C348.797 129.776 348.843 129.609 348.843 129.374V128.074H349.818V130.011H351.348V130.959H349.818V136.052H351.24V137H349.885ZM356.116 137.163C355.638 137.163 355.204 137.077 354.816 136.905C354.437 136.734 354.107 136.49 353.827 136.174C353.556 135.849 353.344 135.465 353.191 135.022C353.046 134.571 352.974 134.065 352.974 133.505C352.974 132.955 353.046 132.453 353.191 132.002C353.344 131.55 353.556 131.167 353.827 130.85C354.107 130.525 354.437 130.277 354.816 130.106C355.204 129.934 355.638 129.848 356.116 129.848C356.586 129.848 357.006 129.934 357.376 130.106C357.746 130.277 358.062 130.516 358.324 130.823C358.586 131.121 358.785 131.478 358.92 131.893C359.065 132.309 359.137 132.765 359.137 133.262V133.776H354.112V134.101C354.112 134.399 354.157 134.679 354.247 134.941C354.347 135.194 354.482 135.415 354.654 135.605C354.834 135.794 355.051 135.943 355.304 136.052C355.566 136.16 355.859 136.214 356.184 136.214C356.627 136.214 357.01 136.111 357.336 135.903C357.67 135.695 357.927 135.397 358.108 135.009L358.88 135.564C358.654 136.043 358.302 136.431 357.823 136.729C357.345 137.018 356.776 137.163 356.116 137.163ZM356.116 130.756C355.818 130.756 355.548 130.81 355.304 130.918C355.06 131.018 354.848 131.162 354.667 131.352C354.496 131.541 354.36 131.767 354.261 132.029C354.161 132.282 354.112 132.562 354.112 132.869V132.964H357.972V132.815C357.972 132.191 357.801 131.695 357.457 131.325C357.123 130.945 356.676 130.756 356.116 130.756ZM365.135 127.545H368.305C368.892 127.545 369.424 127.645 369.903 127.843C370.382 128.042 370.788 128.34 371.122 128.737C371.465 129.126 371.727 129.618 371.908 130.214C372.088 130.801 372.179 131.487 372.179 132.273C372.179 133.058 372.088 133.749 371.908 134.345C371.727 134.932 371.465 135.424 371.122 135.822C370.788 136.21 370.382 136.503 369.903 136.702C369.424 136.901 368.892 137 368.305 137H365.135V127.545ZM368.305 135.998C368.693 135.998 369.05 135.934 369.375 135.808C369.7 135.673 369.98 135.478 370.215 135.226C370.449 134.973 370.63 134.666 370.756 134.305C370.892 133.934 370.96 133.514 370.96 133.045V131.501C370.96 131.031 370.892 130.616 370.756 130.255C370.63 129.884 370.449 129.573 370.215 129.32C369.98 129.067 369.7 128.877 369.375 128.751C369.05 128.616 368.693 128.548 368.305 128.548H366.273V135.998H368.305ZM377.193 137.163C376.715 137.163 376.281 137.077 375.893 136.905C375.514 136.734 375.184 136.49 374.904 136.174C374.633 135.849 374.421 135.465 374.268 135.022C374.123 134.571 374.051 134.065 374.051 133.505C374.051 132.955 374.123 132.453 374.268 132.002C374.421 131.55 374.633 131.167 374.904 130.85C375.184 130.525 375.514 130.277 375.893 130.106C376.281 129.934 376.715 129.848 377.193 129.848C377.663 129.848 378.083 129.934 378.453 130.106C378.823 130.277 379.139 130.516 379.401 130.823C379.663 131.121 379.862 131.478 379.997 131.893C380.142 132.309 380.214 132.765 380.214 133.262V133.776H375.189V134.101C375.189 134.399 375.234 134.679 375.324 134.941C375.424 135.194 375.559 135.415 375.731 135.605C375.911 135.794 376.128 135.943 376.381 136.052C376.643 136.16 376.936 136.214 377.261 136.214C377.704 136.214 378.087 136.111 378.413 135.903C378.747 135.695 379.004 135.397 379.185 135.009L379.957 135.564C379.731 136.043 379.379 136.431 378.9 136.729C378.422 137.018 377.853 137.163 377.193 137.163ZM377.193 130.756C376.896 130.756 376.625 130.81 376.381 130.918C376.137 131.018 375.925 131.162 375.744 131.352C375.573 131.541 375.437 131.767 375.338 132.029C375.238 132.282 375.189 132.562 375.189 132.869V132.964H379.049V132.815C379.049 132.191 378.878 131.695 378.534 131.325C378.2 130.945 377.753 130.756 377.193 130.756ZM327.382 153.618H327.341C327.224 154.061 326.935 154.431 326.475 154.729C326.023 155.018 325.436 155.163 324.714 155.163C324.136 155.163 323.603 155.059 323.115 154.851C322.637 154.634 322.226 154.323 321.883 153.916C321.54 153.501 321.269 152.991 321.07 152.386C320.88 151.772 320.786 151.067 320.786 150.273C320.786 149.487 320.88 148.792 321.07 148.187C321.26 147.573 321.531 147.063 321.883 146.656C322.235 146.241 322.659 145.925 323.156 145.708C323.653 145.491 324.204 145.383 324.809 145.383C325.657 145.383 326.366 145.573 326.935 145.952C327.504 146.331 327.942 146.832 328.249 147.455L327.314 148.024C327.098 147.519 326.773 147.121 326.339 146.832C325.915 146.543 325.405 146.399 324.809 146.399C324.393 146.399 324.014 146.476 323.671 146.629C323.328 146.774 323.03 146.981 322.777 147.252C322.533 147.523 322.343 147.848 322.208 148.227C322.072 148.607 322.005 149.031 322.005 149.501V151.031C322.005 151.501 322.072 151.93 322.208 152.318C322.343 152.697 322.533 153.022 322.777 153.293C323.03 153.564 323.337 153.776 323.698 153.93C324.059 154.074 324.465 154.147 324.917 154.147C325.242 154.147 325.549 154.106 325.838 154.025C326.136 153.934 326.393 153.804 326.61 153.632C326.836 153.46 327.012 153.248 327.138 152.995C327.265 152.733 327.328 152.426 327.328 152.074V151.14H325.242V150.137H328.439V155H327.382V153.618ZM336.1 155C335.694 155 335.401 154.892 335.22 154.675C335.048 154.458 334.94 154.187 334.895 153.862H334.827C334.674 154.296 334.421 154.621 334.069 154.837C333.716 155.054 333.297 155.163 332.809 155.163C332.068 155.163 331.491 154.973 331.075 154.594C330.669 154.214 330.466 153.7 330.466 153.049C330.466 152.39 330.705 151.885 331.184 151.532C331.671 151.18 332.425 151.004 333.446 151.004H334.827V150.313C334.827 149.817 334.692 149.437 334.421 149.176C334.15 148.914 333.735 148.783 333.175 148.783C332.75 148.783 332.394 148.878 332.105 149.067C331.825 149.257 331.59 149.51 331.4 149.826L330.75 149.216C330.94 148.837 331.242 148.516 331.658 148.255C332.073 147.984 332.597 147.848 333.229 147.848C334.078 147.848 334.737 148.056 335.206 148.471C335.676 148.887 335.911 149.465 335.911 150.205V154.052H336.71V155H336.1ZM332.985 154.241C333.256 154.241 333.504 154.21 333.73 154.147C333.956 154.083 334.15 153.993 334.312 153.876C334.475 153.758 334.601 153.623 334.692 153.469C334.782 153.316 334.827 153.149 334.827 152.968V151.817H333.391C332.768 151.817 332.312 151.907 332.023 152.088C331.743 152.268 331.603 152.53 331.603 152.873V153.158C331.603 153.501 331.725 153.767 331.969 153.957C332.222 154.147 332.561 154.241 332.985 154.241ZM340.808 155.163C340.157 155.163 339.611 155.041 339.169 154.797C338.735 154.544 338.36 154.21 338.044 153.794L338.816 153.171C339.087 153.515 339.39 153.781 339.724 153.971C340.058 154.151 340.446 154.241 340.889 154.241C341.349 154.241 341.706 154.142 341.959 153.943C342.221 153.745 342.352 153.465 342.352 153.104C342.352 152.833 342.261 152.603 342.081 152.413C341.909 152.214 341.593 152.079 341.133 152.007L340.577 151.925C340.252 151.88 339.954 151.812 339.683 151.722C339.412 151.623 339.173 151.496 338.965 151.343C338.767 151.18 338.609 150.982 338.491 150.747C338.383 150.512 338.329 150.232 338.329 149.907C338.329 149.564 338.392 149.266 338.518 149.013C338.645 148.751 338.816 148.534 339.033 148.363C339.259 148.191 339.525 148.065 339.832 147.984C340.139 147.893 340.469 147.848 340.821 147.848C341.39 147.848 341.864 147.947 342.243 148.146C342.632 148.345 342.97 148.62 343.259 148.972L342.541 149.623C342.388 149.406 342.162 149.212 341.864 149.04C341.566 148.86 341.191 148.769 340.74 148.769C340.288 148.769 339.945 148.869 339.71 149.067C339.485 149.257 339.372 149.519 339.372 149.853C339.372 150.196 339.485 150.444 339.71 150.598C339.945 150.751 340.279 150.864 340.713 150.936L341.255 151.018C342.031 151.135 342.582 151.361 342.907 151.695C343.232 152.02 343.395 152.449 343.395 152.982C343.395 153.659 343.164 154.192 342.704 154.58C342.243 154.968 341.611 155.163 340.808 155.163ZM347.212 155C346.832 155 346.544 154.896 346.345 154.688C346.155 154.472 346.06 154.192 346.06 153.849V148.959H344.909V148.011H345.559C345.794 148.011 345.952 147.966 346.033 147.875C346.124 147.776 346.169 147.609 346.169 147.374V146.074H347.144V148.011H348.675V148.959H347.144V154.052H348.566V155H347.212ZM353.456 155.163C352.987 155.163 352.558 155.077 352.169 154.905C351.781 154.734 351.447 154.49 351.167 154.174C350.896 153.849 350.684 153.465 350.53 153.022C350.377 152.571 350.3 152.065 350.3 151.505C350.3 150.955 350.377 150.453 350.53 150.002C350.684 149.55 350.896 149.167 351.167 148.85C351.447 148.525 351.781 148.277 352.169 148.106C352.558 147.934 352.987 147.848 353.456 147.848C353.926 147.848 354.35 147.934 354.729 148.106C355.118 148.277 355.452 148.525 355.732 148.85C356.012 149.167 356.228 149.55 356.382 150.002C356.536 150.453 356.612 150.955 356.612 151.505C356.612 152.065 356.536 152.571 356.382 153.022C356.228 153.465 356.012 153.849 355.732 154.174C355.452 154.49 355.118 154.734 354.729 154.905C354.35 155.077 353.926 155.163 353.456 155.163ZM353.456 154.201C354.043 154.201 354.522 154.02 354.892 153.659C355.262 153.298 355.447 152.747 355.447 152.007V151.004C355.447 150.264 355.262 149.713 354.892 149.352C354.522 148.99 354.043 148.81 353.456 148.81C352.869 148.81 352.391 148.99 352.02 149.352C351.65 149.713 351.465 150.264 351.465 151.004V152.007C351.465 152.747 351.65 153.298 352.02 153.659C352.391 154.02 352.869 154.201 353.456 154.201ZM360.945 155.163C360.295 155.163 359.749 155.041 359.306 154.797C358.873 154.544 358.498 154.21 358.182 153.794L358.954 153.171C359.225 153.515 359.528 153.781 359.862 153.971C360.196 154.151 360.584 154.241 361.027 154.241C361.487 154.241 361.844 154.142 362.097 153.943C362.359 153.745 362.49 153.465 362.49 153.104C362.49 152.833 362.399 152.603 362.219 152.413C362.047 152.214 361.731 152.079 361.271 152.007L360.715 151.925C360.39 151.88 360.092 151.812 359.821 151.722C359.55 151.623 359.311 151.496 359.103 151.343C358.905 151.18 358.747 150.982 358.629 150.747C358.521 150.512 358.467 150.232 358.467 149.907C358.467 149.564 358.53 149.266 358.656 149.013C358.783 148.751 358.954 148.534 359.171 148.363C359.397 148.191 359.663 148.065 359.97 147.984C360.277 147.893 360.607 147.848 360.959 147.848C361.528 147.848 362.002 147.947 362.381 148.146C362.77 148.345 363.108 148.62 363.397 148.972L362.679 149.623C362.526 149.406 362.3 149.212 362.002 149.04C361.704 148.86 361.329 148.769 360.878 148.769C360.426 148.769 360.083 148.869 359.848 149.067C359.623 149.257 359.51 149.519 359.51 149.853C359.51 150.196 359.623 150.444 359.848 150.598C360.083 150.751 360.417 150.864 360.851 150.936L361.392 151.018C362.169 151.135 362.72 151.361 363.045 151.695C363.37 152.02 363.533 152.449 363.533 152.982C363.533 153.659 363.302 154.192 362.842 154.58C362.381 154.968 361.749 155.163 360.945 155.163Z" fill="#263238"/>
<g opacity="0.8">
<rect x="317" y="43" width="14" height="14" rx="7" fill="#855CF8"/>
</g>
<path d="M327.628 66.0354H327.561L326.761 67.6202L324.499 71.738L322.237 67.6202L321.438 66.0354H321.37V74H320.26V64.5455H321.777L324.486 69.6385H324.554L327.276 64.5455H328.739V74H327.628V66.0354ZM334.223 74.1625C333.744 74.1625 333.311 74.0768 332.923 73.9052C332.543 73.7336 332.214 73.4898 331.934 73.1737C331.663 72.8487 331.451 72.4649 331.297 72.0224C331.153 71.5709 331.08 71.0652 331.08 70.5053C331.08 69.9545 331.153 69.4533 331.297 69.0018C331.451 68.5503 331.663 68.1665 331.934 67.8505C332.214 67.5254 332.543 67.2771 332.923 67.1055C333.311 66.9339 333.744 66.8481 334.223 66.8481C334.692 66.8481 335.112 66.9339 335.483 67.1055C335.853 67.2771 336.169 67.5164 336.431 67.8234C336.693 68.1214 336.891 68.4781 337.027 68.8935C337.171 69.3089 337.243 69.7649 337.243 70.2615V70.7762H332.218V71.1013C332.218 71.3993 332.263 71.6793 332.354 71.9411C332.453 72.194 332.588 72.4152 332.76 72.6048C332.941 72.7945 333.157 72.9435 333.41 73.0518C333.672 73.1602 333.965 73.2144 334.291 73.2144C334.733 73.2144 335.117 73.1105 335.442 72.9028C335.776 72.6951 336.033 72.3972 336.214 72.0089L336.986 72.5642C336.76 73.0428 336.408 73.4311 335.93 73.7291C335.451 74.0181 334.882 74.1625 334.223 74.1625ZM334.223 67.7557C333.925 67.7557 333.654 67.8099 333.41 67.9182C333.166 68.0175 332.954 68.162 332.774 68.3517C332.602 68.5413 332.466 68.767 332.367 69.0289C332.268 69.2818 332.218 69.5617 332.218 69.8687V69.9635H336.079V69.8145C336.079 69.1915 335.907 68.6948 335.564 68.3246C335.23 67.9453 334.783 67.7557 334.223 67.7557ZM334.331 66.0761L333.627 65.751L334.778 63.4483L335.767 63.9224L334.331 66.0761ZM343.95 72.8622H343.896C343.472 73.7291 342.79 74.1625 341.851 74.1625C341.418 74.1625 341.025 74.0768 340.673 73.9052C340.32 73.7336 340.018 73.4898 339.765 73.1737C339.521 72.8577 339.332 72.4739 339.196 72.0224C339.07 71.5709 339.006 71.0652 339.006 70.5053C339.006 69.9455 339.07 69.4398 339.196 68.9883C339.332 68.5368 339.521 68.153 339.765 67.8369C340.018 67.5209 340.32 67.2771 340.673 67.1055C341.025 66.9339 341.418 66.8481 341.851 66.8481C342.339 66.8481 342.754 66.9565 343.097 67.1732C343.449 67.3809 343.716 67.706 343.896 68.1485H343.95V63.9766H345.034V74H343.95V72.8622ZM342.149 73.1873C342.393 73.1873 342.623 73.1557 342.84 73.0925C343.066 73.0293 343.26 72.939 343.422 72.8216C343.585 72.6951 343.711 72.5462 343.801 72.3746C343.901 72.194 343.95 71.9908 343.95 71.765V69.1644C343.95 68.9747 343.901 68.7987 343.801 68.6361C343.711 68.4645 343.585 68.3201 343.422 68.2027C343.26 68.0853 343.066 67.995 342.84 67.9318C342.623 67.8595 342.393 67.8234 342.149 67.8234C341.535 67.8234 341.052 68.0175 340.7 68.4058C340.347 68.7851 340.171 69.2863 340.171 69.9094V71.1013C340.171 71.7244 340.347 72.2301 340.7 72.6184C341.052 72.9977 341.535 73.1873 342.149 73.1873ZM348.331 65.3717C348.096 65.3717 347.925 65.3175 347.816 65.2092C347.717 65.0918 347.667 64.9428 347.667 64.7622V64.5861C347.667 64.4055 347.717 64.261 347.816 64.1527C347.925 64.0353 348.096 63.9766 348.331 63.9766C348.566 63.9766 348.733 64.0353 348.832 64.1527C348.941 64.261 348.995 64.4055 348.995 64.5861V64.7622C348.995 64.9428 348.941 65.0918 348.832 65.2092C348.733 65.3175 348.566 65.3717 348.331 65.3717ZM347.789 67.0107H348.873V74H347.789V67.0107ZM356.707 74C356.3 74 356.007 73.8916 355.826 73.6749C355.655 73.4582 355.546 73.1873 355.501 72.8622H355.433C355.28 73.2957 355.027 73.6207 354.675 73.8375C354.323 74.0542 353.903 74.1625 353.415 74.1625C352.675 74.1625 352.097 73.9729 351.681 73.5936C351.275 73.2144 351.072 72.6997 351.072 72.0495C351.072 71.3903 351.311 70.8846 351.79 70.5324C352.277 70.1803 353.031 70.0042 354.052 70.0042H355.433V69.3134C355.433 68.8167 355.298 68.4374 355.027 68.1756C354.756 67.9137 354.341 67.7828 353.781 67.7828C353.356 67.7828 353 67.8776 352.711 68.0672C352.431 68.2568 352.196 68.5097 352.006 68.8257L351.356 68.2162C351.546 67.8369 351.848 67.5164 352.264 67.2545C352.679 66.9836 353.203 66.8481 353.835 66.8481C354.684 66.8481 355.343 67.0558 355.813 67.4712C356.282 67.8866 356.517 68.4645 356.517 69.205V73.0518H357.316V74H356.707ZM353.591 73.2415C353.862 73.2415 354.11 73.2099 354.336 73.1467C354.562 73.0834 354.756 72.9931 354.919 72.8758C355.081 72.7584 355.208 72.6229 355.298 72.4694C355.388 72.3159 355.433 72.1488 355.433 71.9682V70.8169H353.998C353.374 70.8169 352.918 70.9072 352.629 71.0878C352.35 71.2684 352.21 71.5303 352.21 71.8734V72.1579C352.21 72.501 352.331 72.7674 352.575 72.957C352.828 73.1467 353.167 73.2415 353.591 73.2415ZM323.592 92.1625C322.391 92.1625 321.456 91.7562 320.788 90.9435C320.12 90.1217 319.786 88.9162 319.786 87.3269C319.786 85.7376 320.12 84.5185 320.788 83.6697C321.456 82.8119 322.391 82.3829 323.592 82.3829C324.386 82.3829 325.05 82.5635 325.583 82.9247C326.125 83.2859 326.545 83.7961 326.843 84.4553L325.922 85.0107C325.732 84.5231 325.443 84.1348 325.055 83.8458C324.666 83.5478 324.179 83.3988 323.592 83.3988C323.185 83.3988 322.82 83.4756 322.495 83.6291C322.179 83.7826 321.908 84.0038 321.682 84.2928C321.465 84.5727 321.298 84.9114 321.181 85.3087C321.063 85.697 321.005 86.1349 321.005 86.6226V88.0313C321.005 89.0065 321.23 89.7696 321.682 90.3204C322.133 90.8712 322.77 91.1467 323.592 91.1467C324.197 91.1467 324.703 90.9931 325.109 90.6861C325.515 90.3701 325.813 89.9547 326.003 89.44L326.91 90.0089C326.612 90.6771 326.183 91.2053 325.624 91.5936C325.064 91.9729 324.386 92.1625 323.592 92.1625ZM331.657 92.1625C331.187 92.1625 330.758 92.0768 330.37 91.9052C329.982 91.7336 329.648 91.4898 329.368 91.1737C329.097 90.8487 328.885 90.4649 328.731 90.0224C328.578 89.5709 328.501 89.0652 328.501 88.5053C328.501 87.9545 328.578 87.4533 328.731 87.0018C328.885 86.5503 329.097 86.1665 329.368 85.8505C329.648 85.5254 329.982 85.2771 330.37 85.1055C330.758 84.9339 331.187 84.8481 331.657 84.8481C332.127 84.8481 332.551 84.9339 332.93 85.1055C333.319 85.2771 333.653 85.5254 333.933 85.8505C334.213 86.1665 334.429 86.5503 334.583 87.0018C334.736 87.4533 334.813 87.9545 334.813 88.5053C334.813 89.0652 334.736 89.5709 334.583 90.0224C334.429 90.4649 334.213 90.8487 333.933 91.1737C333.653 91.4898 333.319 91.7336 332.93 91.9052C332.551 92.0768 332.127 92.1625 331.657 92.1625ZM331.657 91.2008C332.244 91.2008 332.723 91.0202 333.093 90.659C333.463 90.2978 333.648 89.747 333.648 89.0065V88.0042C333.648 87.2637 333.463 86.7129 333.093 86.3517C332.723 85.9905 332.244 85.8099 331.657 85.8099C331.07 85.8099 330.591 85.9905 330.221 86.3517C329.851 86.7129 329.666 87.2637 329.666 88.0042V89.0065C329.666 89.747 329.851 90.2978 330.221 90.659C330.591 91.0202 331.07 91.2008 331.657 91.2008ZM337.047 92V85.0107H338.13V86.1485H338.184C338.356 85.7512 338.595 85.4351 338.902 85.2003C339.218 84.9655 339.638 84.8481 340.162 84.8481C340.884 84.8481 341.453 85.0829 341.869 85.5525C342.293 86.013 342.505 86.6677 342.505 87.5165V92H341.422V87.7062C341.422 86.451 340.893 85.8234 339.837 85.8234C339.62 85.8234 339.408 85.8505 339.2 85.9047C339.002 85.9588 338.821 86.0401 338.659 86.1485C338.496 86.2568 338.365 86.3968 338.266 86.5684C338.175 86.7309 338.13 86.9251 338.13 87.1508V92H337.047ZM347.296 92.1625C346.646 92.1625 346.1 92.0406 345.657 91.7968C345.224 91.544 344.849 91.2099 344.533 90.7945L345.305 90.1714C345.576 90.5145 345.878 90.7809 346.213 90.9706C346.547 91.1512 346.935 91.2415 347.377 91.2415C347.838 91.2415 348.195 91.1421 348.448 90.9435C348.709 90.7448 348.84 90.4649 348.84 90.1037C348.84 89.8328 348.75 89.6025 348.569 89.4129C348.398 89.2142 348.082 89.0788 347.621 89.0065L347.066 88.9252C346.741 88.8801 346.443 88.8124 346.172 88.7221C345.901 88.6227 345.662 88.4963 345.454 88.3428C345.255 88.1803 345.097 87.9816 344.98 87.7468C344.872 87.512 344.817 87.2321 344.817 86.907C344.817 86.5639 344.881 86.2659 345.007 86.013C345.133 85.7512 345.305 85.5344 345.522 85.3629C345.748 85.1913 346.014 85.0649 346.321 84.9836C346.628 84.8933 346.958 84.8481 347.31 84.8481C347.879 84.8481 348.353 84.9475 348.732 85.1461C349.12 85.3448 349.459 85.6202 349.748 85.9724L349.03 86.6226C348.876 86.4058 348.651 86.2117 348.353 86.0401C348.055 85.8595 347.68 85.7692 347.228 85.7692C346.777 85.7692 346.434 85.8685 346.199 86.0672C345.973 86.2568 345.86 86.5187 345.86 86.8528C345.86 87.196 345.973 87.4443 346.199 87.5978C346.434 87.7513 346.768 87.8642 347.201 87.9364L347.743 88.0177C348.52 88.1351 349.071 88.3609 349.396 88.695C349.721 89.0201 349.883 89.449 349.883 89.9818C349.883 90.659 349.653 91.1918 349.193 91.5801C348.732 91.9684 348.1 92.1625 347.296 92.1625ZM356.556 90.8622H356.502C356.43 91.0247 356.339 91.1873 356.231 91.3498C356.132 91.5033 356.005 91.6433 355.852 91.7697C355.698 91.8871 355.513 91.9819 355.296 92.0542C355.08 92.1264 354.827 92.1625 354.538 92.1625C353.816 92.1625 353.242 91.9323 352.818 91.4717C352.393 91.0022 352.181 90.343 352.181 89.4941V85.0107H353.265V89.3045C353.265 90.5597 353.797 91.1873 354.863 91.1873C355.08 91.1873 355.287 91.1602 355.486 91.106C355.694 91.0518 355.874 90.9706 356.028 90.8622C356.19 90.7538 356.317 90.6184 356.407 90.4558C356.507 90.2843 356.556 90.0811 356.556 89.8463V85.0107H357.64V92H356.556V90.8622ZM360.399 92V85.0107H361.482V86.1485H361.537C361.618 85.9679 361.708 85.8008 361.808 85.6473C361.916 85.4848 362.042 85.3448 362.187 85.2274C362.34 85.11 362.516 85.0197 362.715 84.9565C362.914 84.8843 363.149 84.8481 363.419 84.8481C363.88 84.8481 364.304 84.961 364.693 85.1868C365.081 85.4035 365.37 85.7647 365.56 86.2704H365.587C365.713 85.8911 365.948 85.5615 366.291 85.2816C366.643 84.9926 367.117 84.8481 367.713 84.8481C368.427 84.8481 368.982 85.0829 369.379 85.5525C369.786 86.013 369.989 86.6677 369.989 87.5165V92H368.905V87.7062C368.905 87.0831 368.783 86.6135 368.54 86.2975C368.296 85.9814 367.907 85.8234 367.375 85.8234C367.158 85.8234 366.95 85.8505 366.752 85.9047C366.562 85.9588 366.39 86.0401 366.237 86.1485C366.083 86.2568 365.961 86.3968 365.871 86.5684C365.781 86.7309 365.736 86.9251 365.736 87.1508V92H364.652V87.7062C364.652 87.0831 364.53 86.6135 364.286 86.2975C364.043 85.9814 363.663 85.8234 363.149 85.8234C362.932 85.8234 362.724 85.8505 362.525 85.9047C362.327 85.9588 362.151 86.0401 361.997 86.1485C361.844 86.2568 361.717 86.3968 361.618 86.5684C361.528 86.7309 361.482 86.9251 361.482 87.1508V92H360.399ZM375.317 92.1625C374.848 92.1625 374.419 92.0768 374.03 91.9052C373.642 91.7336 373.308 91.4898 373.028 91.1737C372.757 90.8487 372.545 90.4649 372.392 90.0224C372.238 89.5709 372.161 89.0652 372.161 88.5053C372.161 87.9545 372.238 87.4533 372.392 87.0018C372.545 86.5503 372.757 86.1665 373.028 85.8505C373.308 85.5254 373.642 85.2771 374.03 85.1055C374.419 84.9339 374.848 84.8481 375.317 84.8481C375.787 84.8481 376.211 84.9339 376.591 85.1055C376.979 85.2771 377.313 85.5254 377.593 85.8505C377.873 86.1665 378.09 86.5503 378.243 87.0018C378.397 87.4533 378.473 87.9545 378.473 88.5053C378.473 89.0652 378.397 89.5709 378.243 90.0224C378.09 90.4649 377.873 90.8487 377.593 91.1737C377.313 91.4898 376.979 91.7336 376.591 91.9052C376.211 92.0768 375.787 92.1625 375.317 92.1625ZM375.317 91.2008C375.904 91.2008 376.383 91.0202 376.753 90.659C377.123 90.2978 377.308 89.747 377.308 89.0065V88.0042C377.308 87.2637 377.123 86.7129 376.753 86.3517C376.383 85.9905 375.904 85.8099 375.317 85.8099C374.73 85.8099 374.252 85.9905 373.881 86.3517C373.511 86.7129 373.326 87.2637 373.326 88.0042V89.0065C373.326 89.747 373.511 90.2978 373.881 90.659C374.252 91.0202 374.73 91.2008 375.317 91.2008Z" fill="#263238"/>
<defs>
<clipPath id="clip0">
<rect width="330" height="127" fill="white" transform="translate(0 27)"/>
</clipPath>
</defs>
</svg>