<svg width="389" height="95" viewBox="0 0 389 95" fill="none" xmlns="http://www.w3.org/2000/svg">
<rect width="389" height="95" fill="#AFD6FF" fill-opacity="0.55"/>
<path d="M377.886 31.4845C383.443 31.4845 383.443 21 389 21V95H0V88.026C6.02023 88.026 5.55713 91.8828 11.1143 91.8828C16.6714 91.8828 16.6714 80.9302 22.2286 80.9302C27.7857 80.9302 26.8595 84.3002 33.3428 84.3002C39.8262 84.3002 37.9738 90.6096 44.4571 90.6096C50.9405 90.6096 49.5512 88.2132 55.5714 88.2132C61.5917 88.2132 60.4339 76.7926 66.6857 76.7926C72.9375 76.7926 71.3167 80.5183 77.8 80.5183C84.2834 80.5183 83.1256 85.6482 88.9143 85.6482C94.703 85.6482 93.7768 68.6109 100.029 68.6109C106.28 68.6109 105.586 74.5084 111.143 74.5084C116.7 74.5084 115.774 66.2519 122.257 66.2519C128.74 66.2519 127.351 71.5316 133.371 71.5316C139.392 71.5316 138.465 49.9447 144.486 49.9447C150.506 49.9447 149.348 55.9546 155.6 55.9546C161.852 55.9546 160.231 59.9237 166.714 59.9237C173.198 59.9237 171.577 49.6265 177.829 49.6265C184.08 49.6265 182.46 54.6815 188.943 54.6815C195.426 54.6815 194.268 46.35 200.057 46.35C205.846 46.35 205.151 32.4206 211.171 32.4206C217.192 32.4206 216.265 55.7299 222.286 55.7299C228.306 55.7299 227.611 39.4041 233.4 39.4041C239.189 39.4041 238.031 46.556 244.514 46.556C250.998 46.556 249.608 52.9778 255.629 52.9778C261.649 52.9778 260.954 42.3435 266.743 42.3435C272.532 42.3435 272.068 52.4535 277.857 52.4535C283.646 52.4535 282.951 47.9602 288.971 47.9602C294.992 47.9602 294.065 38.6926 300.086 38.6926C306.106 38.6926 305.18 42.3996 311.2 42.3996C317.22 42.3996 316.757 28.8634 322.314 28.8634C327.871 28.8634 326.945 47.4172 333.429 47.4172C339.912 47.4172 338.291 34.8171 344.543 34.8171C350.795 34.8171 349.868 40.0032 355.657 40.0032C361.446 40.0032 360.983 27.0848 366.771 27.0848C372.56 27.0848 372.329 31.4845 377.886 31.4845Z" fill="#E289F2"/>
<path d="M12.7188 26.085H7.17285V30.6201H13.6152V32H5.48535V19.2031H13.5273V20.5918H7.17285V24.7051H12.7188V26.085ZM16.999 22.4902L17.0518 23.6855C17.7783 22.7715 18.7275 22.3145 19.8994 22.3145C21.9092 22.3145 22.9229 23.4482 22.9404 25.7158V32H21.3145V25.707C21.3086 25.0215 21.1504 24.5146 20.8398 24.1865C20.5352 23.8584 20.0576 23.6943 19.4072 23.6943C18.8799 23.6943 18.417 23.835 18.0186 24.1162C17.6201 24.3975 17.3096 24.7666 17.0869 25.2236V32H15.4609V22.4902H16.999ZM29.3389 32.1758C28.0498 32.1758 27.001 31.7539 26.1924 30.9102C25.3838 30.0605 24.9795 28.9268 24.9795 27.5088V27.21C24.9795 26.2666 25.1582 25.4258 25.5156 24.6875C25.8789 23.9434 26.3828 23.3633 27.0273 22.9473C27.6777 22.5254 28.3809 22.3145 29.1367 22.3145C30.373 22.3145 31.334 22.7217 32.0195 23.5361C32.7051 24.3506 33.0479 25.5166 33.0479 27.0342V27.7109H26.6055C26.6289 28.6484 26.9014 29.4072 27.4229 29.9873C27.9502 30.5615 28.6182 30.8486 29.4268 30.8486C30.001 30.8486 30.4873 30.7314 30.8857 30.4971C31.2842 30.2627 31.6328 29.9521 31.9316 29.5654L32.9248 30.3389C32.1279 31.5635 30.9326 32.1758 29.3389 32.1758ZM29.1367 23.6504C28.4805 23.6504 27.9297 23.8906 27.4844 24.3711C27.0391 24.8457 26.7637 25.5137 26.6582 26.375H31.4219V26.252C31.375 25.4258 31.1523 24.7871 30.7539 24.3359C30.3555 23.8789 29.8164 23.6504 29.1367 23.6504ZM39.5342 23.9492C39.2881 23.9082 39.0215 23.8877 38.7344 23.8877C37.668 23.8877 36.9443 24.3418 36.5635 25.25V32H34.9375V22.4902H36.5195L36.5459 23.5889C37.0791 22.7393 37.835 22.3145 38.8135 22.3145C39.1299 22.3145 39.3701 22.3555 39.5342 22.4375V23.9492ZM40.4746 27.166C40.4746 25.6836 40.8174 24.5059 41.5029 23.6328C42.1885 22.7539 43.0967 22.3145 44.2275 22.3145C45.3877 22.3145 46.293 22.7246 46.9434 23.5449L47.0225 22.4902H48.5078V31.7715C48.5078 33.002 48.1416 33.9717 47.4092 34.6807C46.6826 35.3896 45.7041 35.7441 44.4736 35.7441C43.7881 35.7441 43.1172 35.5977 42.4609 35.3047C41.8047 35.0117 41.3037 34.6104 40.958 34.1006L41.8018 33.125C42.499 33.9863 43.3516 34.417 44.3594 34.417C45.1504 34.417 45.7656 34.1943 46.2051 33.749C46.6504 33.3037 46.873 32.6768 46.873 31.8682V31.0508C46.2227 31.8008 45.335 32.1758 44.21 32.1758C43.0967 32.1758 42.1943 31.7275 41.5029 30.8311C40.8174 29.9346 40.4746 28.7129 40.4746 27.166ZM42.1094 27.3506C42.1094 28.4229 42.3291 29.2666 42.7686 29.8818C43.208 30.4912 43.8232 30.7959 44.6143 30.7959C45.6396 30.7959 46.3926 30.3301 46.873 29.3984V25.0566C46.375 24.1484 45.6279 23.6943 44.6318 23.6943C43.8408 23.6943 43.2227 24.002 42.7773 24.6172C42.332 25.2324 42.1094 26.1436 42.1094 27.3506ZM52.7354 32H51.1094V22.4902H52.7354V32ZM50.9775 19.9678C50.9775 19.7041 51.0566 19.4814 51.2148 19.2998C51.3789 19.1182 51.6191 19.0273 51.9355 19.0273C52.252 19.0273 52.4922 19.1182 52.6562 19.2998C52.8203 19.4814 52.9023 19.7041 52.9023 19.9678C52.9023 20.2314 52.8203 20.4512 52.6562 20.627C52.4922 20.8027 52.252 20.8906 51.9355 20.8906C51.6191 20.8906 51.3789 20.8027 51.2148 20.627C51.0566 20.4512 50.9775 20.2314 50.9775 19.9678ZM61.2168 32C61.123 31.8125 61.0469 31.4785 60.9883 30.998C60.2324 31.7832 59.3301 32.1758 58.2812 32.1758C57.3438 32.1758 56.5732 31.9121 55.9697 31.3848C55.3721 30.8516 55.0732 30.1777 55.0732 29.3633C55.0732 28.373 55.4482 27.6055 56.1982 27.0605C56.9541 26.5098 58.0146 26.2344 59.3799 26.2344H60.9619V25.4873C60.9619 24.9189 60.792 24.4678 60.4521 24.1338C60.1123 23.7939 59.6113 23.624 58.9492 23.624C58.3691 23.624 57.8828 23.7705 57.4902 24.0635C57.0977 24.3564 56.9014 24.7109 56.9014 25.127H55.2666C55.2666 24.6523 55.4336 24.1953 55.7676 23.7559C56.1074 23.3105 56.5645 22.959 57.1387 22.7012C57.7188 22.4434 58.3545 22.3145 59.0459 22.3145C60.1416 22.3145 61 22.5898 61.6211 23.1406C62.2422 23.6855 62.5645 24.4385 62.5879 25.3994V29.7764C62.5879 30.6494 62.6992 31.3438 62.9219 31.8594V32H61.2168ZM58.5186 30.7607C59.0283 30.7607 59.5117 30.6289 59.9688 30.3652C60.4258 30.1016 60.7568 29.7588 60.9619 29.3369V27.3857H59.6875C57.6953 27.3857 56.6992 27.9688 56.6992 29.1348C56.6992 29.6445 56.8691 30.043 57.209 30.3301C57.5488 30.6172 57.9854 30.7607 58.5186 30.7607ZM73.5479 32.1758C72.2588 32.1758 71.21 31.7539 70.4014 30.9102C69.5928 30.0605 69.1885 28.9268 69.1885 27.5088V27.21C69.1885 26.2666 69.3672 25.4258 69.7246 24.6875C70.0879 23.9434 70.5918 23.3633 71.2363 22.9473C71.8867 22.5254 72.5898 22.3145 73.3457 22.3145C74.582 22.3145 75.543 22.7217 76.2285 23.5361C76.9141 24.3506 77.2568 25.5166 77.2568 27.0342V27.7109H70.8145C70.8379 28.6484 71.1104 29.4072 71.6318 29.9873C72.1592 30.5615 72.8271 30.8486 73.6357 30.8486C74.21 30.8486 74.6963 30.7314 75.0947 30.4971C75.4932 30.2627 75.8418 29.9521 76.1406 29.5654L77.1338 30.3389C76.3369 31.5635 75.1416 32.1758 73.5479 32.1758ZM73.3457 23.6504C72.6895 23.6504 72.1387 23.8906 71.6934 24.3711C71.248 24.8457 70.9727 25.5137 70.8672 26.375H75.6309V26.252C75.584 25.4258 75.3613 24.7871 74.9629 24.3359C74.5645 23.8789 74.0254 23.6504 73.3457 23.6504ZM80.6758 22.4902L80.7197 23.5449C81.417 22.7246 82.3574 22.3145 83.541 22.3145C84.8711 22.3145 85.7764 22.8242 86.2568 23.8438C86.5732 23.3867 86.9834 23.0176 87.4873 22.7363C87.9971 22.4551 88.5977 22.3145 89.2891 22.3145C91.375 22.3145 92.4355 23.4189 92.4707 25.6279V32H90.8447V25.7246C90.8447 25.0449 90.6895 24.5381 90.3789 24.2041C90.0684 23.8643 89.5469 23.6943 88.8145 23.6943C88.2109 23.6943 87.71 23.876 87.3115 24.2393C86.9131 24.5967 86.6816 25.0801 86.6172 25.6895V32H84.9824V25.7686C84.9824 24.3857 84.3057 23.6943 82.9521 23.6943C81.8857 23.6943 81.1562 24.1484 80.7637 25.0566V32H79.1377V22.4902H80.6758ZM102.903 26.0498L101.339 27.6758V32H99.6514V19.2031H101.339V25.5312L107.025 19.2031H109.064L104.028 24.8545L109.46 32H107.438L102.903 26.0498ZM118.539 29.7588L120.367 22.4902H121.993L119.225 32H117.906L115.595 24.793L113.345 32H112.026L109.267 22.4902H110.884L112.756 29.6094L114.971 22.4902H116.28L118.539 29.7588Z" fill="black"/>
<line y1="11.5" x2="389" y2="11.5" stroke="#007BFF"/>
</svg>
