<svg width="388" height="96" viewBox="0 0 388 96" fill="none" xmlns="http://www.w3.org/2000/svg">
<rect y="1" width="388" height="95" fill="#FFA8A8" fill-opacity="0.55"/>
<path d="M376.914 32.4845C382.457 32.4845 382.457 22 388 22V96H0V89.026C6.00476 89.026 5.54282 92.8828 11.0857 92.8828C16.6285 92.8828 16.6286 81.9302 22.1714 81.9302C27.7143 81.9302 26.7905 85.3002 33.2571 85.3002C39.7238 85.3002 37.8762 91.6096 44.3428 91.6096C50.8095 91.6096 49.4238 89.2132 55.4286 89.2132C61.4333 89.2132 60.2786 77.7926 66.5143 77.7926C72.75 77.7926 71.1334 81.5183 77.6 81.5183C84.0667 81.5183 82.9119 86.6482 88.6857 86.6482C94.4595 86.6482 93.5357 69.6109 99.7714 69.6109C106.007 69.6109 105.314 75.5084 110.857 75.5084C116.4 75.5084 115.476 67.2519 121.943 67.2519C128.41 67.2519 127.024 72.5316 133.029 72.5316C139.033 72.5316 138.11 50.9447 144.114 50.9447C150.119 50.9447 148.964 56.9546 155.2 56.9546C161.436 56.9546 159.819 60.9237 166.286 60.9237C172.752 60.9237 171.136 50.6264 177.371 50.6264C183.607 50.6264 181.99 55.6815 188.457 55.6815C194.924 55.6815 193.769 47.35 199.543 47.35C205.317 47.35 204.624 33.4206 210.629 33.4206C216.633 33.4206 215.71 56.7299 221.714 56.7299C227.719 56.7299 227.026 40.4041 232.8 40.4041C238.574 40.4041 237.419 47.556 243.886 47.556C250.352 47.556 248.967 53.9778 254.971 53.9778C260.976 53.9778 260.283 43.3435 266.057 43.3435C271.831 43.3435 271.369 53.4535 277.143 53.4535C282.917 53.4535 282.224 48.9602 288.229 48.9602C294.233 48.9602 293.31 39.6926 299.314 39.6926C305.319 39.6926 304.395 43.3996 310.4 43.3996C316.405 43.3996 317.624 9 323.167 9C328.71 9 324.68 32.4845 331.147 32.4845C337.613 32.4845 335.883 15.5 342.118 15.5C348.354 15.5 348.969 41.0032 354.743 41.0032C360.517 41.0032 360.055 28.0848 365.829 28.0848C371.602 28.0848 371.371 32.4845 376.914 32.4845Z" fill="#E289F2"/>
<line y1="12.5" x2="388" y2="12.5" stroke="#FF0000"/>
<path d="M12.5518 29.6602H7.19043L5.98633 33H4.24609L9.13281 20.2031H10.6094L15.5049 33H13.7734L12.5518 29.6602ZM7.7002 28.2715H12.0508L9.87109 22.2861L7.7002 28.2715ZM16.5859 28.166C16.5859 26.6836 16.9287 25.5059 17.6143 24.6328C18.2998 23.7539 19.208 23.3145 20.3389 23.3145C21.499 23.3145 22.4043 23.7246 23.0547 24.5449L23.1338 23.4902H24.6191V32.7715C24.6191 34.002 24.2529 34.9717 23.5205 35.6807C22.7939 36.3896 21.8154 36.7441 20.585 36.7441C19.8994 36.7441 19.2285 36.5977 18.5723 36.3047C17.916 36.0117 17.415 35.6104 17.0693 35.1006L17.9131 34.125C18.6104 34.9863 19.4629 35.417 20.4707 35.417C21.2617 35.417 21.877 35.1943 22.3164 34.749C22.7617 34.3037 22.9844 33.6768 22.9844 32.8682V32.0508C22.334 32.8008 21.4463 33.1758 20.3213 33.1758C19.208 33.1758 18.3057 32.7275 17.6143 31.8311C16.9287 30.9346 16.5859 29.7129 16.5859 28.166ZM18.2207 28.3506C18.2207 29.4229 18.4404 30.2666 18.8799 30.8818C19.3193 31.4912 19.9346 31.7959 20.7256 31.7959C21.751 31.7959 22.5039 31.3301 22.9844 30.3984V26.0566C22.4863 25.1484 21.7393 24.6943 20.7432 24.6943C19.9521 24.6943 19.334 25.002 18.8887 25.6172C18.4434 26.2324 18.2207 27.1436 18.2207 28.3506ZM32.9512 32.0596C32.3184 32.8037 31.3896 33.1758 30.165 33.1758C29.1514 33.1758 28.3779 32.8828 27.8447 32.2969C27.3174 31.7051 27.0508 30.832 27.0449 29.6777V23.4902H28.6709V29.6338C28.6709 31.0752 29.2568 31.7959 30.4287 31.7959C31.6709 31.7959 32.4971 31.333 32.9072 30.4072V23.4902H34.5332V33H32.9863L32.9512 32.0596ZM42.8828 33C42.7891 32.8125 42.7129 32.4785 42.6543 31.998C41.8984 32.7832 40.9961 33.1758 39.9473 33.1758C39.0098 33.1758 38.2393 32.9121 37.6357 32.3848C37.0381 31.8516 36.7393 31.1777 36.7393 30.3633C36.7393 29.373 37.1143 28.6055 37.8643 28.0605C38.6201 27.5098 39.6807 27.2344 41.0459 27.2344H42.6279V26.4873C42.6279 25.9189 42.458 25.4678 42.1182 25.1338C41.7783 24.7939 41.2773 24.624 40.6152 24.624C40.0352 24.624 39.5488 24.7705 39.1562 25.0635C38.7637 25.3564 38.5674 25.7109 38.5674 26.127H36.9326C36.9326 25.6523 37.0996 25.1953 37.4336 24.7559C37.7734 24.3105 38.2305 23.959 38.8047 23.7012C39.3848 23.4434 40.0205 23.3145 40.7119 23.3145C41.8076 23.3145 42.666 23.5898 43.2871 24.1406C43.9082 24.6855 44.2305 25.4385 44.2539 26.3994V30.7764C44.2539 31.6494 44.3652 32.3438 44.5879 32.8594V33H42.8828ZM40.1846 31.7607C40.6943 31.7607 41.1777 31.6289 41.6348 31.3652C42.0918 31.1016 42.4229 30.7588 42.6279 30.3369V28.3857H41.3535C39.3613 28.3857 38.3652 28.9688 38.3652 30.1348C38.3652 30.6445 38.5352 31.043 38.875 31.3301C39.2148 31.6172 39.6514 31.7607 40.1846 31.7607ZM55.2139 33.1758C53.9248 33.1758 52.876 32.7539 52.0674 31.9102C51.2588 31.0605 50.8545 29.9268 50.8545 28.5088V28.21C50.8545 27.2666 51.0332 26.4258 51.3906 25.6875C51.7539 24.9434 52.2578 24.3633 52.9023 23.9473C53.5527 23.5254 54.2559 23.3145 55.0117 23.3145C56.248 23.3145 57.209 23.7217 57.8945 24.5361C58.5801 25.3506 58.9229 26.5166 58.9229 28.0342V28.7109H52.4805C52.5039 29.6484 52.7764 30.4072 53.2979 30.9873C53.8252 31.5615 54.4932 31.8486 55.3018 31.8486C55.876 31.8486 56.3623 31.7314 56.7607 31.4971C57.1592 31.2627 57.5078 30.9521 57.8066 30.5654L58.7998 31.3389C58.0029 32.5635 56.8076 33.1758 55.2139 33.1758ZM55.0117 24.6504C54.3555 24.6504 53.8047 24.8906 53.3594 25.3711C52.9141 25.8457 52.6387 26.5137 52.5332 27.375H57.2969V27.252C57.25 26.4258 57.0273 25.7871 56.6289 25.3359C56.2305 24.8789 55.6914 24.6504 55.0117 24.6504ZM62.3418 23.4902L62.3857 24.5449C63.083 23.7246 64.0234 23.3145 65.207 23.3145C66.5371 23.3145 67.4424 23.8242 67.9229 24.8438C68.2393 24.3867 68.6494 24.0176 69.1533 23.7363C69.6631 23.4551 70.2637 23.3145 70.9551 23.3145C73.041 23.3145 74.1016 24.4189 74.1367 26.6279V33H72.5107V26.7246C72.5107 26.0449 72.3555 25.5381 72.0449 25.2041C71.7344 24.8643 71.2129 24.6943 70.4805 24.6943C69.877 24.6943 69.376 24.876 68.9775 25.2393C68.5791 25.5967 68.3477 26.0801 68.2832 26.6895V33H66.6484V26.7686C66.6484 25.3857 65.9717 24.6943 64.6182 24.6943C63.5518 24.6943 62.8223 25.1484 62.4297 26.0566V33H60.8037V23.4902H62.3418ZM83.4971 20.2031L87.6807 30.6445L91.8643 20.2031H94.0527V33H92.3652V28.0166L92.5234 22.6377L88.3223 33H87.0303L82.8379 22.6641L83.0049 28.0166V33H81.3174V20.2031H83.4971ZM97.876 23.1035H98.6143C99.0479 23.1035 99.3701 23.0156 99.5811 22.8398C99.792 22.6582 99.8975 22.4268 99.8975 22.1455C99.8975 21.8818 99.8037 21.665 99.6162 21.4951C99.4346 21.3252 99.1387 21.2402 98.7285 21.2402C98.3945 21.2402 98.1162 21.3164 97.8936 21.4688C97.6768 21.6152 97.5684 21.8086 97.5684 22.0488H96.1885C96.1885 21.4746 96.4258 21.0088 96.9004 20.6514C97.3809 20.2881 97.9844 20.1064 98.7109 20.1064C99.5137 20.1064 100.144 20.2852 100.601 20.6426C101.058 20.9941 101.286 21.4746 101.286 22.084C101.286 22.4062 101.184 22.7021 100.979 22.9717C100.773 23.2354 100.478 23.4404 100.091 23.5869C100.964 23.8271 101.4 24.3662 101.4 25.2041C101.4 25.8252 101.151 26.3203 100.653 26.6895C100.155 27.0527 99.5078 27.2344 98.7109 27.2344C97.9375 27.2344 97.3076 27.0498 96.8213 26.6807C96.335 26.3115 96.0918 25.8135 96.0918 25.1865H97.4805C97.4805 25.4502 97.5947 25.6699 97.8232 25.8457C98.0576 26.0215 98.3711 26.1094 98.7637 26.1094C99.1738 26.1094 99.4844 26.0215 99.6953 25.8457C99.9121 25.6699 100.021 25.4326 100.021 25.1338C100.021 24.4717 99.5635 24.1348 98.6494 24.123H97.876V23.1035Z" fill="black"/>
</svg>